<?xml version="1.0" encoding="utf-8"?>
<!-- Generator: Adobe Illustrator 24.0.1, SVG Export Plug-In . SVG Version: 6.00 Build 0)  -->
<svg version="1.1" id="Layer_4" xmlns="http://www.w3.org/2000/svg" xmlns:xlink="http://www.w3.org/1999/xlink" x="0px" y="0px"
	 viewBox="0 0 702.4 801" style="enable-background:new 0 0 702.4 801;" xml:space="preserve">
<style type="text/css">
	.st0{fill:#CCCCCC;stroke:#000000;stroke-width:11;stroke-miterlimit:10;}
	.st1{fill:#8BB24C;}
	.st2{fill:#57945C;}
	.st3{fill:#534741;}
	.st4{display:none;}
	.st5{display:inline;fill:#F4F2C5;}
	.st6{fill:#E9E86D;}
	.st7{fill:#EFEE97;}
	.st8{fill:#D7D98D;}
	.st9{fill:#435440;}
	.st10{fill:#8D7CA7;}
	.st11{fill:#795D8D;}
	.st12{fill:#A35844;}
	.st13{fill:#B37B65;}
	.st14{fill:#AB5A2A;}
	.st15{fill:#B77B31;}
	.st16{fill:#B1BADE;}
	.st17{fill:#8587BC;}
	.st18{fill:#71913D;}
	.st19{stroke:#000000;stroke-width:15;stroke-miterlimit:10;}
	.st20{fill:#FFFFFF;stroke:#E0D746;stroke-width:4;stroke-miterlimit:10;}
	.st21{fill:#FFFFFF;}
	.st22{font-family:'MyriadPro-Bold';}
	.st23{font-size:45.3981px;}
</style>
<path class="st0" d="M118.5,160.2c0,0-8.5-43.7,25-43.7c20.3,0,330-0.2,369.9-0.3c0,0,25.1-4.3,25.1,27.4c0,32.9,0,546.3,0,546.3
	s0.2,22.3-32.9,24.4c-3.8,0.2-379.5,0.4-379.5,0.4L118.5,160.2z"/>
<g>
	<g>
		<path class="st1" d="M176.3,147.5c0,0,20.8-76.1-14.7-110S108.9,110.3,176.3,147.5z"/>
		<path class="st1" d="M134.9,42.2c0,0,4.4-12.1,25.5-27c0,0-8.4,10.1,5,26.4L134.9,42.2z"/>
	</g>
	<g>
		<path class="st2" d="M175.2,148.1c0,0,33.4-3,41.7-22.2S180,115.7,175.2,148.1z"/>
		<path class="st2" d="M211,116c0,0,5.5-0.1,14.6,6.2c0,0-5.3-1.8-9.8,5.9L211,116z"/>
	</g>
	<g>
		<path class="st2" d="M195.4,104.1c0,0,30.4-56.2,70.1-56.1C305.3,48,255.7,120,195.4,104.1z"/>
		<path class="st2" d="M278.5,65.6c0,0,4.2-9.5,0.2-30.1c0,0-0.7,10.6-17.6,12.7L278.5,65.6z"/>
	</g>
	<path class="st3" d="M170,158.2c-0.6,1-1.9,1.3-3,0.7l0,0c-1.1-0.6-1.5-1.9-0.9-2.9l48.3-85.6c0.6-1,1.9-1.3,3-0.7l0,0
		c1.1,0.6,1.5,1.9,0.9,2.9L170,158.2z"/>
</g>
<g>
	<g class="st4">
		<path class="st5" d="M418.7,737.1c0,0,78.9-2.3,101-46.2C541.7,647,434.6,661.8,418.7,737.1z"/>
		<path class="st5" d="M507.4,666.8c0,0,12.8,0.6,33.3,16.5c0,0-12.1-5.1-23.8,12.5L507.4,666.8z"/>
	</g>
	<g>
		<path class="st6" d="M405.3,736.4c0,0,16.4,40.5,43.4,43.4C475.8,782.8,447.5,730.1,405.3,736.4z"/>
		<path class="st6" d="M458.9,768.8c0,0,2.1,6.8-2.1,20.4c0,0,0.3-7.3-11-9.9L458.9,768.8z"/>
	</g>
	<g>
		<path class="st7" d="M484.8,747.8c0,0,28.7,5.8,34,23.2C524.1,788.5,485.9,776.4,484.8,747.8z"/>
		<path class="st7" d="M512.8,779.1c0,0,4.7,0.6,13.2-3.9c0,0-4.8,1.1-7.9-6L512.8,779.1z"/>
	</g>
	<path class="st3" d="M406.6,734.3c-1.1-0.3-1.8-1.4-1.6-2.6l0,0c0.3-1.2,1.4-2,2.5-1.7l96,21.2c1.1,0.3,1.8,1.4,1.6,2.6l0,0
		c-0.3,1.2-1.4,2-2.5,1.7L406.6,734.3z"/>
</g>
<g>
	<path class="st8" d="M498.5,192.9c0,0,35.5,64.5,81.3,64C625.7,256.5,567.8,174,498.5,192.9z"/>
	<path class="st8" d="M592.8,232.3c0,0,6.7,11.1,3.8,36.9c0,0-0.7-11.7-21.7-12.5L592.8,232.3z"/>
	<path class="st9" d="M477.5,191.4c0,0,73.4,5.5,98.1-33.1C600.3,119.7,499.5,123.1,477.5,191.4z"/>
	<path class="st3" d="M452,189.4c-1.1-0.1-1.9-1.1-1.8-2.2l0,0c0.1-1.1,1.1-2,2.1-1.9l91.3,8.3c1.1,0.1,1.9,1.1,1.8,2.2l0,0
		c-0.1,1.1-1.1,2-2.1,1.9L452,189.4z"/>
	<path class="st9" d="M570.6,136.1c0,0,9.9,3.1,25.1,24.1c0,0-11.7-6-27.9,7.5L570.6,136.1z"/>
</g>
<g>
	<path class="st10" d="M521.3,348.1c0,0,47.1,28.1,76.4,10.6C627,341.1,558.7,309.9,521.3,348.1z"/>
	<path class="st10" d="M591.6,335.3c0,0,10.6,3.3,24.4,20.9c0,0-7.8-6.6-20.5,3.5L591.6,335.3z"/>
	<path class="st3" d="M490,363.3c-0.7,0.3-1.6,0-2-0.8l0,0c-0.4-0.8-0.1-1.7,0.7-2l61.8-29c0.7-0.3,1.6,0,2,0.8l0,0
		c0.4,0.8,0.1,1.7-0.7,2L490,363.3z"/>
	<path class="st11" d="M507.2,355c0,0,49.3-24.1,50.6-58.2S495.6,302.8,507.2,355z"/>
	<path class="st11" d="M538.1,287.6c0,0,9.1-6.9,30.2-3.3c0,0-10.4,3.2-12.1,20.6L538.1,287.6z"/>
</g>
<g>
	<path class="st12" d="M508.1,440.9c0,0,22.3,68.2,66.2,76.1C618.3,524.9,577.9,435.4,508.1,440.9z"/>
	<path class="st12" d="M592.4,500.4c0,0,2.5,10.8-7.1,34.9c0,0,1.7-14-18.4-20.4L592.4,500.4z"/>
	<path class="st13" d="M488.3,435.6c0,0,69.3,18.6,99.9-13.9C618.9,389.3,521.8,374.2,488.3,435.6z"/>
	<path class="st13" d="M578.9,395.7c0,0,12.8,0.2,32.9,16.5c0,0-11.7-4.2-25.1,11.1L578.9,395.7z"/>
	<path class="st3" d="M464.2,429.1c-1-0.3-1.6-1.4-1.3-2.5l0,0c0.3-1.1,1.4-1.7,2.4-1.4l85.9,24.5c1,0.3,1.6,1.4,1.3,2.5l0,0
		c-0.3,1.1-1.4,1.7-2.4,1.4L464.2,429.1z"/>
</g>
<g>
	<path class="st14" d="M509,535.8c0,0-36.7,60.7-14.2,98.7C517.2,672.5,558.1,584.4,509,535.8z"/>
	<path class="st3" d="M494,501c-0.4-0.9,0-2.1,1-2.5l0,0c1-0.5,2.2-0.1,2.6,0.9l37.1,80.2c0.4,0.9,0,2.1-1,2.5l0,0
		c-1,0.5-2.2,0.1-2.6-0.9L494,501z"/>
	<path class="st15" d="M509.5,538.3c0,0,30.8,63.9,74.9,65.9C628.6,606.1,577.2,523.7,509.5,538.3z"/>
	<path class="st15" d="M597.9,580.7c0,0,6.5,11.1,4.4,36.9c0,0-2.1-13.9-23.1-14.1L597.9,580.7z"/>
</g>
<g>
	<g>
		<path class="st16" d="M397.2,140.1c0,0,79.2-48.8,75.8-106.7C469.6-24.4,369.1,53.9,397.2,140.1z"/>
		<path class="st16" d="M445.3,16.6c0,0,10.6-6.5,38.7-6.2c0,0-12.2,2.6-10.9,25.3L445.3,16.6z"/>
	</g>
	<path class="st3" d="M401.4,197.3c0.1,1.4-1,2.5-2.5,2.6l0,0c-1.4,0.1-2.7-1-2.7-2.3l-6-115.7c-0.1-1.4,1-2.5,2.5-2.6l0,0
		c1.4-0.1,2.7,1,2.7,2.3L401.4,197.3z"/>
	<g>
		<path class="st17" d="M399.4,166.1c0,0-6.3-92.8-59-116.8S309.9,150.8,399.4,166.1z"/>
		<path class="st17" d="M312.4,66.2c0,0-0.9-14.9,11.4-37.7c0,0-0.3,13.2,18.9,21.8L312.4,66.2z"/>
	</g>
</g>
<g>
	<path class="st18" d="M487.2,654.6c0,0,41.5,7.4,13.7,79.3c0,0-22.2-22.9-3.1-47.1c0,0-18.7,17.9-4,47.2c0,0-28.7-17.3-18.1-41.2
		C487,667,496.2,665.5,487.2,654.6z"/>
	<path class="st18" d="M564.5,642c0,0,17,35.5-11.2,65.9C525,738.3,528,724.1,507.7,743c0,0-2.3-24.6,18.6-44.1
		c0,0,5.1,7.4,16.2,9.6c0,0-12-6.3-13.6-12.3c0,0,10.5-6.1,23-8.7c0,0-12.3,0.6-24.2,6.7c0,0-5.2-9.5-14-10.1c0,0,9.9,5.5,11.4,11.6
		c0,0-13.2,5.6-24.1,38.2c0,0-15-49.3,21.2-60.8C558.2,661.6,563.4,659.1,564.5,642z"/>
	<path class="st18" d="M560.6,715.3c0,0-1.1,21.7-22.4,30.1c-13.4,5.3-14.9-3.5-29.1,3c0,0,10.4-19.7,28-16.8
		c0,0-13.4-5.6-29.4,11.3c0,0-4-25.7,28.7-23.5C545.9,720.2,553.2,725.4,560.6,715.3z"/>
</g>
<path class="st19" d="M510.5,727.7c0,7.6-6.2,13.8-13.8,13.8H134.3c-7.6,0-13.8-6.2-13.8-13.8V163.3c0-7.6,6.2-13.8,13.8-13.8h362.4
	c7.6,0,13.8,6.2,13.8,13.8V727.7z"/>
<g>
	<g>
		<rect x="296" y="264" class="st20" width="33" height="331"/>
		<rect x="227" y="314" class="st20" width="172" height="34"/>
	</g>
	<g>
		<rect x="298" y="262" class="st21" width="33" height="331"/>
		<rect x="229" y="312" class="st21" width="172" height="34"/>
	</g>
</g>
<text transform="matrix(1 0 0 1 263.2744 669.1201)" class="st21 st22 st23">Bible</text>
<text transform="matrix(1 0 0 1 263.7139 221.1221)" class="st21 st22 st23">Holy</text>
</svg>
